# xmcd
#
# Track frame offsets: 
#        150
#        13650
#        29175
#        44475
#        63638
#        82538
#        100763
#        116063
#        134288
#        152588
#
# Disc length: 2277 seconds
#
# Revision: 0
# Processed by: cddbd v1.5.2PL0 Copyright (c) Steve Scherf et al.
# Submitted via: ExactAudioCopy v0.99pb5
#
DISCID=7e08e30a
DTITLE=Vanilla Lucy - VANILLA SHAKE
DYEAR=2010
DGENRE=KPop
TTITLE0=Intro(ºñ°µµÚ ¿ÀÈÄ)
TTITLE1=Lover Tonight
TTITLE2=French Love(Kor ver)
TTITLE3=ºñÇà(Þ«ú¼)¼Ò³à(ÁÖÀÎ°ø ³îÀÌ)
TTITLE4=Lucid Dream
TTITLE5=Listen to the music
TTITLE6=French Love(Eng ver)
TTITLE7=Listen to the music(Inst)
TTITLE8=Sky in my heart
TTITLE9=Outro(Romantist)
EXTD=
EXTT0=
EXTT1=
EXTT2=
EXTT3=
EXTT4=
EXTT5=
EXTT6=
EXTT7=
EXTT8=
EXTT9=
PLAYORDER=
